<?xml version="1.0" encoding="UTF-8"?>
<svg id="Layer_2" data-name="Layer 2" xmlns="http://www.w3.org/2000/svg" viewBox="0 0 3080 732.91">
  <defs>
    <style>
      .cls-1 {
        fill: #61d790;
        stroke-width: 0px;
      }
    </style>
  </defs>
  <g id="Layer_1-2" data-name="Layer 1">
    <g>
      <g>
        <polygon class="cls-1" points="198.34 481.69 821.71 481.69 623.37 680.04 0 680.04 0 396.69 198.34 198.34 198.34 481.69"/>
        <polygon class="cls-1" points="1020.05 0 1020.05 283.35 821.71 481.69 821.71 198.34 198.34 198.34 396.69 0 1020.05 0"/>
      </g>
      <g>
        <path class="cls-1" d="m1397.67,581.36l-179.27-482.19h74.46l146.17,410.55,147.55-410.55h73.08l-179.27,482.19h-82.74Z"/>
        <path class="cls-1" d="m1951.31,308.91c-13.33-25.01-32.16-45.1-56.53-60.26-24.37-15.16-53.55-22.74-87.56-22.74s-63.9,7.68-89.65,23.08-45.84,36.76-60.31,64.06c-14.5,27.33-21.73,59.36-21.73,96.09s7.24,67.28,21.73,94.37c14.47,27.09,34.56,48.22,60.31,63.37,25.75,15.16,55.16,22.74,88.27,22.74,27.12,0,51.12-4.83,72.03-14.47,20.91-9.64,38.5-22.84,52.76-39.61,14.23-16.77,24.35-35.7,30.34-56.83h-68.95c-6.89,16.53-17.48,29.63-31.71,39.27-14.26,9.64-32.43,14.47-54.47,14.47-18.4,0-35.41-4.49-51.04-13.44-15.63-8.95-28.15-22.26-37.58-39.95-8.13-15.24-12.75-33.51-13.86-54.77h266.57c.45-6.42.79-12.28,1.03-17.56s.34-10.22.34-14.81c0-30.31-6.65-57.96-19.99-83.02Zm-247.16,66.49c1.85-16.37,6.21-30.5,13.07-42.35,9.43-16.32,21.94-28.7,37.58-37.21,15.63-8.5,32.88-12.75,51.73-12.75,26.64,0,48.96,8.16,66.89,24.45,17.93,16.32,27.57,38.92,28.94,67.86h-198.2Z"/>
        <path class="cls-1" d="m2164.37,589.63c-29.42,0-55.16-4.82-77.22-14.47-22.06-9.64-39.54-23.18-52.4-40.64-12.87-17.45-20.68-37.89-23.44-61.31h70.33c2.29,11.02,6.78,21.13,13.44,30.31,6.66,9.19,15.86,16.53,27.58,22.04,11.72,5.51,25.62,8.27,41.71,8.27,15.17,0,27.69-2.18,37.58-6.54,9.88-4.36,17.12-10.33,21.72-17.91,4.59-7.58,6.9-15.72,6.9-24.45,0-12.85-3.1-22.61-9.31-29.28-6.2-6.65-15.41-11.94-27.58-15.84-12.18-3.9-26.78-7.46-43.78-10.68-16.1-2.76-31.61-6.54-46.54-11.36-14.94-4.82-28.27-10.9-39.99-18.25-11.72-7.34-21.03-16.64-27.93-27.9-6.89-11.25-10.34-25.14-10.34-41.68,0-19.74,5.28-37.54,15.86-53.39,10.57-15.84,25.62-28.24,45.16-37.2,19.53-8.96,42.63-13.43,69.29-13.43,38.61,0,69.64,9.19,93.08,27.55,23.44,18.37,37.23,44.32,41.37,77.84h-66.88c-1.84-15.61-8.74-27.66-20.68-36.16-11.96-8.49-27.82-12.74-47.58-12.74s-34.94,3.91-45.51,11.71c-10.58,7.81-15.86,18.15-15.86,31,0,8.27,2.98,15.62,8.96,22.04,5.97,6.44,14.82,11.83,26.55,16.19,11.72,4.37,26.08,8.38,43.09,12.05,24.36,4.6,46.2,10.33,65.5,17.22,19.31,6.89,34.7,17,46.2,30.31,11.48,13.32,17.24,32.37,17.24,57.17.45,21.59-4.94,40.64-16.2,57.17-11.27,16.53-27.13,29.4-47.57,38.58-20.46,9.18-44.71,13.78-72.74,13.78Z"/>
        <path class="cls-1" d="m2364.31,732.91V234.19h62.05l6.9,53.73c7.35-10.56,16.55-20.55,27.58-29.96,11.03-9.41,24.24-17.1,39.65-23.08,15.39-5.96,33.44-8.95,54.12-8.95,33.09,0,62.16,8.04,87.22,24.11,25.05,16.08,44.58,37.78,58.61,65.1,14.02,27.33,21.03,58.44,21.03,93.34s-7.13,66.02-21.37,93.34c-14.25,27.33-33.9,48.8-58.95,64.41-25.06,15.61-54.12,23.42-87.22,23.42-27.13,0-51.02-5.4-71.71-16.19-20.68-10.79-37-25.83-48.95-45.12v204.59h-68.95Zm178.58-203.21c21.14,0,39.87-5.05,56.19-15.15,16.31-10.1,29.19-24.34,38.61-42.71,9.42-18.36,14.13-39.72,14.13-64.06s-4.72-45.57-14.13-63.72c-9.43-18.14-22.3-32.38-38.61-42.71-16.32-10.33-35.05-15.5-56.19-15.5s-40.57,5.17-56.88,15.5c-16.32,10.33-29.08,24.57-38.27,42.71-9.2,18.15-13.79,39.38-13.79,63.72s4.59,45.7,13.79,64.06c9.19,18.37,21.94,32.61,38.27,42.71,16.31,10.11,35.27,15.15,56.88,15.15Z"/>
        <path class="cls-1" d="m2899.35,589.63c-28.51,0-52.17-4.82-71.02-14.47-18.85-9.64-32.87-22.61-42.06-38.92-9.2-16.3-13.79-33.86-13.79-52.7,0-22.96,5.97-42.59,17.93-58.9,11.95-16.3,28.96-28.81,51.02-37.54,22.06-8.72,48.49-13.09,79.29-13.09h90.32c0-20.2-3-36.96-8.96-50.28-5.98-13.31-14.82-23.3-26.54-29.96-11.72-6.65-26.55-9.99-44.47-9.99-20.68,0-38.38,4.94-53.09,14.81-14.72,9.88-23.91,24.45-27.58,43.74h-68.95c2.76-24.34,11.14-45.12,25.17-62.34,14.02-17.22,32.06-30.54,54.12-39.95,22.07-9.41,45.51-14.12,70.33-14.12,32.63,0,59.99,5.75,82.05,17.22,22.06,11.48,38.72,27.67,49.99,48.56,11.26,20.9,16.89,45.81,16.89,74.74v214.92h-59.99l-5.52-58.55c-5.06,9.19-11.03,17.91-17.93,26.18-6.89,8.27-15.06,15.39-24.48,21.35-9.43,5.97-20.23,10.68-32.4,14.12-12.18,3.44-25.63,5.17-40.34,5.17Zm13.1-55.8c14.7,0,28.03-2.98,39.99-8.96,11.95-5.96,22.17-14.12,30.68-24.45,8.5-10.33,14.93-22.04,19.3-35.13,4.36-13.09,6.78-26.52,7.24-40.3v-2.07h-82.05c-19.77,0-35.75,2.41-47.92,7.23-12.18,4.82-21.03,11.37-26.55,19.63-5.52,8.27-8.27,17.91-8.27,28.93s2.64,21.25,7.93,29.28c5.28,8.04,12.98,14.36,23.1,18.94,10.11,4.6,22.29,6.89,36.54,6.89Z"/>
      </g>
    </g>
  </g>
</svg>